<svg width="20" height="21" viewBox="0 0 20 21" fill="none" xmlns="http://www.w3.org/2000/svg">
<path d="M2 11.7C2 10.5954 2.89543 9.70001 4 9.70001H6C7.10457 9.70001 8 10.5954 8 11.7V15.7C8 16.8046 7.10457 17.7 6 17.7H4C2.89543 17.7 2 16.8046 2 15.7V11.7Z" fill="black"/>
<path d="M12 7.70001C12 6.59544 12.8954 5.70001 14 5.70001H16C17.1046 5.70001 18 6.59544 18 7.70001V15.7C18 16.8046 17.1046 17.7 16 17.7H14C12.8954 17.7 12 16.8046 12 15.7V7.70001Z" fill="black"/>
<path d="M7 13.7C7 12.5954 7.89543 11.7 9 11.7H11C12.1046 11.7 13 12.5954 13 13.7V15.7C13 16.8046 12.1046 17.7 11 17.7H9C7.89543 17.7 7 16.8046 7 15.7V13.7Z" fill="black"/>
</svg>
