<svg width="17" height="17" viewBox="0 0 17 17" fill="none" xmlns="http://www.w3.org/2000/svg">
<path d="M12.9167 5.07914L12.3387 13.1738C12.3147 13.5102 12.1642 13.825 11.9174 14.0549C11.6706 14.2847 11.3459 14.4125 11.0087 14.4125H5.49134C5.1541 14.4125 4.82938 14.2847 4.5826 14.0549C4.33581 13.825 4.18528 13.5102 4.16134 13.1738L3.58334 5.07914M6.91667 7.74581V11.7458M9.58334 7.74581V11.7458M10.25 5.07914V3.07914C10.25 2.90233 10.1798 2.73276 10.0547 2.60774C9.92972 2.48271 9.76015 2.41248 9.58334 2.41248H6.91667C6.73986 2.41248 6.57029 2.48271 6.44527 2.60774C6.32024 2.73276 6.25001 2.90233 6.25001 3.07914V5.07914M2.91667 5.07914H13.5833" stroke="black" stroke-width="2" stroke-linecap="round" stroke-linejoin="round"/>
</svg>
