<svg width="17" height="17" viewBox="0 0 17 17" fill="none" xmlns="http://www.w3.org/2000/svg">
<path d="M7.58334 3.53331H4.25001C3.89638 3.53331 3.55724 3.67379 3.3072 3.92384C3.05715 4.17388 2.91667 4.51302 2.91667 4.86664V12.2C2.91667 12.5536 3.05715 12.8927 3.3072 13.1428C3.55724 13.3928 3.89638 13.5333 4.25001 13.5333H11.5833C11.937 13.5333 12.2761 13.3928 12.5261 13.1428C12.7762 12.8927 12.9167 12.5536 12.9167 12.2V8.86664M11.974 2.59064C12.097 2.4633 12.2441 2.36172 12.4068 2.29184C12.5695 2.22196 12.7444 2.18518 12.9215 2.18364C13.0985 2.18211 13.2741 2.21584 13.4379 2.28288C13.6018 2.34992 13.7507 2.44893 13.8759 2.57412C14.0011 2.69931 14.1001 2.84818 14.1671 3.01204C14.2341 3.1759 14.2679 3.35147 14.2663 3.52851C14.2648 3.70555 14.228 3.88051 14.1581 4.04318C14.0883 4.20586 13.9867 4.35298 13.8593 4.47598L8.13534 10.2H6.25001V8.31464L11.974 2.59064Z" stroke="black" stroke-width="2" stroke-linecap="round" stroke-linejoin="round"/>
</svg>
