<svg width="17" height="17" viewBox="0 0 17 17" fill="none" xmlns="http://www.w3.org/2000/svg">
<path d="M7.58328 4.12706H4.24994C3.89632 4.12706 3.55718 4.26754 3.30713 4.51759C3.05709 4.76763 2.91661 5.10677 2.91661 5.46039V12.7937C2.91661 13.1473 3.05709 13.4865 3.30713 13.7365C3.55718 13.9866 3.89632 14.1271 4.24994 14.1271H11.5833C11.9369 14.1271 12.276 13.9866 12.5261 13.7365C12.7761 13.4865 12.9166 13.1473 12.9166 12.7937V9.46039M11.9739 3.18439C12.0969 3.05705 12.2441 2.95547 12.4067 2.88559C12.5694 2.81571 12.7444 2.77893 12.9214 2.77739C13.0984 2.77586 13.274 2.80959 13.4379 2.87663C13.6017 2.94367 13.7506 3.04268 13.8758 3.16787C14.001 3.29306 14.1 3.44193 14.167 3.60579C14.2341 3.76965 14.2678 3.94522 14.2663 4.12226C14.2647 4.2993 14.228 4.47426 14.1581 4.63693C14.0882 4.79961 13.9866 4.94673 13.8593 5.06973L8.13528 10.7937H6.24994V8.90839L11.9739 3.18439Z" stroke="black" stroke-width="2" stroke-linecap="round" stroke-linejoin="round"/>
</svg>
