<svg width="20" height="21" viewBox="0 0 20 21" fill="none" xmlns="http://www.w3.org/2000/svg">
<path d="M9 2.70001C8.44772 2.70001 8 3.14773 8 3.70001V4.70001H5C3.89543 4.70001 3 5.59544 3 6.70001V16.7C3 17.8046 3.89543 18.7 5 18.7H15C16.1046 18.7 17 17.8046 17 16.7V6.70001C17 5.59544 16.1046 4.70001 15 4.70001H12V3.70001C12 3.14773 11.5523 2.70001 11 2.70001H9Z" fill="black"/>
<path d="M6 8.70001C6 8.14773 6.44772 7.70001 7 7.70001H13C13.5523 7.70001 14 8.14773 14 8.70001C14 9.25229 13.5523 9.70001 13 9.70001H7C6.44772 9.70001 6 9.25229 6 8.70001Z" fill="black"/>
<path d="M6 12.7C6 12.1477 6.44772 11.7 7 11.7H13C13.5523 11.7 14 12.1477 14 12.7C14 13.2523 13.5523 13.7 13 13.7H7C6.44772 13.7 6 13.2523 6 12.7Z" fill="black"/>
</svg>
