<svg width="20" height="20" viewBox="0 0 20 20" fill="none" xmlns="http://www.w3.org/2000/svg">
<path d="M9 6C9 7.65685 7.65685 9 6 9C4.34315 9 3 7.65685 3 6C3 4.34315 4.34315 3 6 3C7.65685 3 9 4.34315 9 6Z" fill="black"/>
<path d="M17 6C17 7.65685 15.6569 9 14 9C12.3431 9 11 7.65685 11 6C11 4.34315 12.3431 3 14 3C15.6569 3 17 4.34315 17 6Z" fill="black"/>
<path d="M12.9291 15C12.9758 14.6734 13 14.3395 13 14C13 11.7909 11.2091 10 9 10C6.79086 10 5 11.7909 5 14C5 14.3395 5.02423 14.6734 5.07088 15H12.9291Z" fill="black"/>
<path d="M15 11.9999C16.1046 11.9999 17 12.8953 17 13.9999C17 15.1045 16.1046 15.9999 15 15.9999H13.4722C13.8097 15.3624 14 14.6102 14 13.7999C14 12.8058 13.6056 11.9271 12.9778 11.2777C13.5694 11.1018 14.2736 10.9999 15 11.9999Z" fill="black"/>
</svg>
