<svg width="21" height="21" viewBox="0 0 21 21" fill="none" xmlns="http://www.w3.org/2000/svg">
<path d="M10.8 2.3999C11.3523 2.3999 11.8 2.84762 11.8 3.3999V4.66746C14.5984 5.26279 16.8 7.63646 16.8 10.4999C16.8 11.0522 16.3523 11.4999 15.8 11.4999C15.2477 11.4999 14.8 11.0522 14.8 10.4999C14.8 8.83259 13.4673 7.4999 11.8 7.4999H9.79999C8.1327 7.4999 6.79999 8.83259 6.79999 10.4999C6.79999 12.1672 8.1327 13.4999 9.79999 13.4999H11.8C14.5614 13.4999 16.8 15.7385 16.8 18.4999C16.8 19.0522 16.3523 19.4999 15.8 19.4999C15.2477 19.4999 14.8 19.0522 14.8 18.4999C14.8 16.8326 13.4673 15.4999 11.8 15.4999H9.79999C7.03857 15.4999 4.79999 13.2613 4.79999 10.4999C4.79999 7.63646 7.00156 5.26279 9.79999 4.66746V3.3999C9.79999 2.84762 10.2477 2.3999 10.8 2.3999Z" fill="black"/>
</svg>
