<svg width="17" height="17" viewBox="0 0 17 17" fill="none" xmlns="http://www.w3.org/2000/svg">
<path d="M12.9167 5.29167L12.3387 13.3863C12.3147 13.7227 12.1642 14.0375 11.9174 14.2674C11.6706 14.4972 11.3459 14.625 11.0087 14.625H5.49134C5.1541 14.625 4.82938 14.4972 4.5826 14.2674C4.33581 14.0375 4.18528 13.7227 4.16134 13.3863L3.58334 5.29167M6.91667 7.95833V11.9583M9.58334 7.95833V11.9583M10.25 5.29167V3.29167C10.25 3.11486 10.1798 2.94529 10.0547 2.82026C9.92972 2.69524 9.76015 2.625 9.58334 2.625H6.91667C6.73986 2.625 6.57029 2.69524 6.44527 2.82026C6.32024 2.94529 6.25001 3.11486 6.25001 3.29167V5.29167M2.91667 5.29167H13.5833" stroke="black" stroke-width="2" stroke-linecap="round" stroke-linejoin="round"/>
</svg>
