<svg width="17" height="17" viewBox="0 0 17 17" fill="none" xmlns="http://www.w3.org/2000/svg">
<path d="M12.9167 5.37284L12.3387 13.4675C12.3147 13.8039 12.1642 14.1187 11.9174 14.3486C11.6706 14.5784 11.3459 14.7062 11.0087 14.7062H5.49134C5.1541 14.7062 4.82938 14.5784 4.5826 14.3486C4.33581 14.1187 4.18528 13.8039 4.16134 13.4675L3.58334 5.37284M6.91667 8.03951V12.0395M9.58334 8.03951V12.0395M10.25 5.37284V3.37284C10.25 3.19603 10.1798 3.02646 10.0547 2.90144C9.92972 2.77641 9.76015 2.70618 9.58334 2.70618H6.91667C6.73986 2.70618 6.57029 2.77641 6.44527 2.90144C6.32024 3.02646 6.25001 3.19603 6.25001 3.37284V5.37284M2.91667 5.37284H13.5833" stroke="black" stroke-width="2" stroke-linecap="round" stroke-linejoin="round"/>
</svg>
