<svg width="17" height="17" viewBox="0 0 17 17" fill="none" xmlns="http://www.w3.org/2000/svg">
<path d="M7.58334 4.03954H4.25001C3.89638 4.03954 3.55724 4.18001 3.3072 4.43006C3.05715 4.68011 2.91667 5.01925 2.91667 5.37287V12.7062C2.91667 13.0598 3.05715 13.399 3.3072 13.649C3.55724 13.8991 3.89638 14.0395 4.25001 14.0395H11.5833C11.937 14.0395 12.2761 13.8991 12.5261 13.649C12.7762 13.399 12.9167 13.0598 12.9167 12.7062V9.37287M11.974 3.09687C12.097 2.96952 12.2441 2.86795 12.4068 2.79807C12.5695 2.72819 12.7444 2.69141 12.9215 2.68987C13.0985 2.68833 13.2741 2.72207 13.4379 2.78911C13.6018 2.85615 13.7507 2.95515 13.8759 3.08034C14.0011 3.20553 14.1001 3.3544 14.1671 3.51826C14.2341 3.68213 14.2679 3.8577 14.2663 4.03474C14.2648 4.21178 14.228 4.38674 14.1581 4.54941C14.0883 4.71208 13.9867 4.85921 13.8593 4.9822L8.13534 10.7062H6.25001V8.82087L11.974 3.09687Z" stroke="black" stroke-width="2" stroke-linecap="round" stroke-linejoin="round"/>
</svg>
