<svg width="20" height="21" viewBox="0 0 20 21" fill="none" xmlns="http://www.w3.org/2000/svg">
<path d="M17.5 18.0999L12.5 13.0999M14.1667 8.93319C14.1667 9.69923 14.0158 10.4578 13.7226 11.1655C13.4295 11.8732 12.9998 12.5163 12.4581 13.058C11.9164 13.5997 11.2734 14.0293 10.5657 14.3225C9.85792 14.6156 9.09938 14.7665 8.33333 14.7665C7.56729 14.7665 6.80875 14.6156 6.10101 14.3225C5.39328 14.0293 4.75022 13.5997 4.20854 13.058C3.66687 12.5163 3.23719 11.8732 2.94404 11.1655C2.65088 10.4578 2.5 9.69923 2.5 8.93319C2.5 7.38609 3.11458 5.90236 4.20854 4.8084C5.30251 3.71444 6.78624 3.09985 8.33333 3.09985C9.88043 3.09985 11.3642 3.71444 12.4581 4.8084C13.5521 5.90236 14.1667 7.38609 14.1667 8.93319Z" stroke="black" stroke-width="2" stroke-linecap="round" stroke-linejoin="round"/>
</svg>
