<svg width="17" height="17" viewBox="0 0 17 17" fill="none" xmlns="http://www.w3.org/2000/svg">
<path d="M7.58334 3.74584H4.25001C3.89638 3.74584 3.55724 3.88631 3.3072 4.13636C3.05715 4.38641 2.91667 4.72555 2.91667 5.07917V12.4125C2.91667 12.7661 3.05715 13.1053 3.3072 13.3553C3.55724 13.6054 3.89638 13.7458 4.25001 13.7458H11.5833C11.937 13.7458 12.2761 13.6054 12.5261 13.3553C12.7762 13.1053 12.9167 12.7661 12.9167 12.4125V9.07917M11.974 2.80317C12.097 2.67582 12.2441 2.57425 12.4068 2.50437C12.5695 2.43449 12.7444 2.39771 12.9215 2.39617C13.0985 2.39463 13.2741 2.42837 13.4379 2.49541C13.6018 2.56245 13.7507 2.66145 13.8759 2.78664C14.0011 2.91183 14.1001 3.0607 14.1671 3.22456C14.2341 3.38843 14.2679 3.564 14.2663 3.74104C14.2648 3.91808 14.228 4.09304 14.1581 4.25571C14.0883 4.41838 13.9867 4.56551 13.8593 4.6885L8.13534 10.4125H6.25001V8.52717L11.974 2.80317Z" stroke="black" stroke-width="2" stroke-linecap="round" stroke-linejoin="round"/>
</svg>
