<svg width="21" height="20" viewBox="0 0 21 20" fill="none" xmlns="http://www.w3.org/2000/svg">
<path d="M10.4 2C10.9523 2 11.4 2.44772 11.4 3V4.26756C14.1984 4.86289 16.4 7.23656 16.4 10.1C16.4 10.6523 15.9523 11.1 15.4 11.1C14.8477 11.1 14.4 10.6523 14.4 10.1C14.4 8.43269 13.0673 7.1 11.4 7.1H9.40002C7.73271 7.1 6.40002 8.43269 6.40002 10.1C6.40002 11.7673 7.73271 13.1 9.40002 13.1H11.4C14.1614 13.1 16.4 15.3386 16.4 18.1C16.4 18.6523 15.9523 19.1 15.4 19.1C14.8477 19.1 14.4 18.6523 14.4 18.1C14.4 16.4327 13.0673 15.1 11.4 15.1H9.40002C6.6386 15.1 4.40002 12.8614 4.40002 10.1C4.40002 7.23656 6.60159 4.86289 9.40002 4.26756V3C9.40002 2.44772 9.84774 2 10.4 2Z" fill="#8B5CF6"/>
</svg>
