<svg width="17" height="17" viewBox="0 0 17 17" fill="none" xmlns="http://www.w3.org/2000/svg">
<path d="M12.9166 5.46037L12.3386 13.555C12.3147 13.8914 12.1641 14.2062 11.9174 14.4361C11.6706 14.6659 11.3459 14.7937 11.0086 14.7937H5.49128C5.15404 14.7937 4.82932 14.6659 4.58253 14.4361C4.33575 14.2062 4.18522 13.8914 4.16128 13.555L3.58328 5.46037M6.91661 8.12703V12.127M9.58328 8.12703V12.127M10.2499 5.46037V3.46037C10.2499 3.28356 10.1797 3.11399 10.0547 2.98896C9.92966 2.86394 9.76009 2.7937 9.58328 2.7937H6.91661C6.7398 2.7937 6.57023 2.86394 6.44521 2.98896C6.32018 3.11399 6.24994 3.28356 6.24994 3.46037V5.46037M2.91661 5.46037H13.5833" stroke="black" stroke-width="2" stroke-linecap="round" stroke-linejoin="round"/>
</svg>
