<svg width="20" height="21" viewBox="0 0 20 21" fill="none" xmlns="http://www.w3.org/2000/svg">
<path d="M6 2.70001C5.44772 2.70001 5 3.14773 5 3.70001V4.70001H4C2.89543 4.70001 2 5.59544 2 6.70001V16.7C2 17.8046 2.89543 18.7 4 18.7H16C17.1046 18.7 18 17.8046 18 16.7V6.70001C18 5.59544 17.1046 4.70001 16 4.70001H15V3.70001C15 3.14773 14.5523 2.70001 14 2.70001C13.4477 2.70001 13 3.14773 13 3.70001V4.70001H7V3.70001C7 3.14773 6.55228 2.70001 6 2.70001Z" fill="black"/>
<path d="M6 8.70001C6 8.14773 6.44772 7.70001 7 7.70001H13C13.5523 7.70001 14 8.14773 14 8.70001C14 9.25229 13.5523 9.70001 13 9.70001H7C6.44772 9.70001 6 9.25229 6 8.70001Z" fill="black"/>
</svg>
