<svg width="20" height="21" viewBox="0 0 20 21" fill="none" xmlns="http://www.w3.org/2000/svg">
<path d="M9 6.70001C9 8.35686 7.65685 9.70001 6 9.70001C4.34315 9.70001 3 8.35686 3 6.70001C3 5.04316 4.34315 3.70001 6 3.70001C7.65685 3.70001 9 5.04316 9 6.70001Z" fill="black"/>
<path d="M17 6.70001C17 8.35686 15.6569 9.70001 14 9.70001C12.3431 9.70001 11 8.35686 11 6.70001C11 5.04316 12.3431 3.70001 14 3.70001C15.6569 3.70001 17 5.04316 17 6.70001Z" fill="black"/>
<path d="M12.9291 15.7C12.9758 15.3734 13 15.0395 13 14.7C13 12.4909 11.2091 10.7 9 10.7C6.79086 10.7 5 12.4909 5 14.7C5 15.0395 5.02423 15.3734 5.07088 15.7H12.9291Z" fill="black"/>
<path d="M15 12.7C16.1046 12.7 17 13.5954 17 14.7C17 15.8046 16.1046 16.7 15 16.7H13.4722C13.8097 16.0625 14 15.3103 14 14.5C14 13.5059 13.6056 12.6272 12.9778 11.9778C13.5694 11.8019 14.2736 11.7 15 12.7Z" fill="black"/>
</svg>
