<svg width="17" height="17" viewBox="0 0 17 17" fill="none" xmlns="http://www.w3.org/2000/svg">
<path d="M7.58334 3.75816H4.25001C3.89638 3.75816 3.55724 3.89864 3.3072 4.14869C3.05715 4.39874 2.91667 4.73788 2.91667 5.0915V12.4248C2.91667 12.7785 3.05715 13.1176 3.3072 13.3676C3.55724 13.6177 3.89638 13.7582 4.25001 13.7582H11.5833C11.937 13.7582 12.2761 13.6177 12.5261 13.3676C12.7762 13.1176 12.9167 12.7785 12.9167 12.4248V9.0915M11.974 2.8155C12.097 2.68815 12.2441 2.58657 12.4068 2.5167C12.5695 2.44682 12.7444 2.41004 12.9215 2.4085C13.0985 2.40696 13.2741 2.44069 13.4379 2.50774C13.6018 2.57478 13.7507 2.67378 13.8759 2.79897C14.0011 2.92416 14.1001 3.07303 14.1671 3.23689C14.2341 3.40075 14.2679 3.57633 14.2663 3.75337C14.2648 3.93041 14.228 4.10537 14.1581 4.26804C14.0883 4.43071 13.9867 4.57784 13.8593 4.70083L8.13534 10.4248H6.25001V8.5395L11.974 2.8155Z" stroke="black" stroke-width="2" stroke-linecap="round" stroke-linejoin="round"/>
</svg>
