<svg width="17" height="17" viewBox="0 0 17 17" fill="none" xmlns="http://www.w3.org/2000/svg">
<path d="M12.9167 5.09147L12.3387 13.1861C12.3147 13.5225 12.1642 13.8373 11.9174 14.0672C11.6706 14.297 11.3459 14.4248 11.0087 14.4248H5.49134C5.1541 14.4248 4.82938 14.297 4.5826 14.0672C4.33581 13.8373 4.18528 13.5225 4.16134 13.1861L3.58334 5.09147M6.91667 7.75814V11.7581M9.58334 7.75814V11.7581M10.25 5.09147V3.09147C10.25 2.91466 10.1798 2.74509 10.0547 2.62007C9.92972 2.49504 9.76015 2.4248 9.58334 2.4248H6.91667C6.73986 2.4248 6.57029 2.49504 6.44527 2.62007C6.32024 2.74509 6.25001 2.91466 6.25001 3.09147V5.09147M2.91667 5.09147H13.5833" stroke="black" stroke-width="2" stroke-linecap="round" stroke-linejoin="round"/>
</svg>
