<svg width="17" height="17" viewBox="0 0 17 17" fill="none" xmlns="http://www.w3.org/2000/svg">
<path d="M7.58334 3.53356H4.25001C3.89638 3.53356 3.55724 3.67403 3.3072 3.92408C3.05715 4.17413 2.91667 4.51327 2.91667 4.86689V12.2002C2.91667 12.5538 3.05715 12.893 3.3072 13.143C3.55724 13.3931 3.89638 13.5336 4.25001 13.5336H11.5833C11.937 13.5336 12.2761 13.3931 12.5261 13.143C12.7762 12.893 12.9167 12.5538 12.9167 12.2002V8.86689M11.974 2.59089C12.097 2.46354 12.2441 2.36197 12.4068 2.29209C12.5695 2.22221 12.7444 2.18543 12.9215 2.18389C13.0985 2.18235 13.2741 2.21609 13.4379 2.28313C13.6018 2.35017 13.7507 2.44917 13.8759 2.57436C14.0011 2.69955 14.1001 2.84842 14.1671 3.01228C14.2341 3.17615 14.2679 3.35172 14.2663 3.52876C14.2648 3.7058 14.228 3.88076 14.1581 4.04343C14.0883 4.2061 13.9867 4.35323 13.8593 4.47622L8.13534 10.2002H6.25001V8.31489L11.974 2.59089Z" stroke="black" stroke-width="2" stroke-linecap="round" stroke-linejoin="round"/>
</svg>
