<svg width="21" height="21" viewBox="0 0 21 21" fill="none" xmlns="http://www.w3.org/2000/svg">
<path d="M10.4625 2.5C11.0148 2.5 11.4625 2.94772 11.4625 3.5V4.76756C14.2609 5.36289 16.4625 7.73656 16.4625 10.6C16.4625 11.1523 16.0148 11.6 15.4625 11.6C14.9102 11.6 14.4625 11.1523 14.4625 10.6C14.4625 8.93269 13.1298 7.6 11.4625 7.6H9.46252C7.79521 7.6 6.46252 8.93269 6.46252 10.6C6.46252 12.2673 7.79521 13.6 9.46252 13.6H11.4625C14.2239 13.6 16.4625 15.8386 16.4625 18.6C16.4625 19.1523 16.0148 19.6 15.4625 19.6C14.9102 19.6 14.4625 19.1523 14.4625 18.6C14.4625 16.9327 13.1298 15.6 11.4625 15.6H9.46252C6.7011 15.6 4.46252 13.3614 4.46252 10.6C4.46252 7.73656 6.66409 5.36289 9.46252 4.76756V3.5C9.46252 2.94772 9.91024 2.5 10.4625 2.5Z" fill="black"/>
</svg>
