<svg width="20" height="20" viewBox="0 0 20 20" fill="none" xmlns="http://www.w3.org/2000/svg">
<path d="M9 2C8.44772 2 8 2.44772 8 3V4H5C3.89543 4 3 4.89543 3 6V16C3 17.1046 3.89543 18 5 18H15C16.1046 18 17 17.1046 17 16V6C17 4.89543 16.1046 4 15 4H12V3C12 2.44772 11.5523 2 11 2H9Z" fill="black"/>
<path d="M6 8C6 7.44772 6.44772 7 7 7H13C13.5523 7 14 7.44772 14 8C14 8.55228 13.5523 9 13 9H7C6.44772 9 6 8.55228 6 8Z" fill="black"/>
<path d="M6 12C6 11.4477 6.44772 11 7 11H13C13.5523 11 14 11.4477 14 12C14 12.5523 13.5523 13 13 13H7C6.44772 13 6 12.5523 6 12Z" fill="black"/>
</svg>
