<svg width="17" height="17" viewBox="0 0 17 17" fill="none" xmlns="http://www.w3.org/2000/svg">
<path d="M12.9167 4.86686L12.3387 12.9615C12.3147 13.2979 12.1642 13.6127 11.9174 13.8426C11.6706 14.0724 11.3459 14.2002 11.0087 14.2002H5.49134C5.1541 14.2002 4.82938 14.0724 4.5826 13.8426C4.33581 13.6127 4.18528 13.2979 4.16134 12.9615L3.58334 4.86686M6.91667 7.53353V11.5335M9.58334 7.53353V11.5335M10.25 4.86686V2.86686C10.25 2.69005 10.1798 2.52048 10.0547 2.39546C9.92972 2.27043 9.76015 2.2002 9.58334 2.2002H6.91667C6.73986 2.2002 6.57029 2.27043 6.44527 2.39546C6.32024 2.52048 6.25001 2.69005 6.25001 2.86686V4.86686M2.91667 4.86686H13.5833" stroke="black" stroke-width="2" stroke-linecap="round" stroke-linejoin="round"/>
</svg>
