<svg width="20" height="20" viewBox="0 0 20 20" fill="none" xmlns="http://www.w3.org/2000/svg">
<path d="M2 11C2 9.89543 2.89543 9 4 9H6C7.10457 9 8 9.89543 8 11V15C8 16.1046 7.10457 17 6 17H4C2.89543 17 2 16.1046 2 15V11Z" fill="black"/>
<path d="M12 7C12 5.89543 12.8954 5 14 5H16C17.1046 5 18 5.89543 18 7V15C18 16.1046 17.1046 17 16 17H14C12.8954 17 12 16.1046 12 15V7Z" fill="black"/>
<path d="M7 13C7 11.8954 7.89543 11 9 11H11C12.1046 11 13 11.8954 13 13V15C13 16.1046 12.1046 17 11 17H9C7.89543 17 7 16.1046 7 15V13Z" fill="black"/>
</svg>
