<svg width="20" height="21" viewBox="0 0 20 21" fill="none" xmlns="http://www.w3.org/2000/svg">
<path d="M3 4.70001C3 4.14773 3.44772 3.70001 4 3.70001H7C7.55228 3.70001 8 4.14773 8 4.70001V7.70001C8 8.25229 7.55228 8.70001 7 8.70001H4C3.44772 8.70001 3 8.25229 3 7.70001V4.70001Z" fill="black"/>
<path d="M12 4.70001C12 4.14773 12.4477 3.70001 13 3.70001H16C16.5523 3.70001 17 4.14773 17 4.70001V7.70001C17 8.25229 16.5523 8.70001 16 8.70001H13C12.4477 8.70001 12 8.25229 12 7.70001V4.70001Z" fill="black"/>
<path d="M3 13.7C3 13.1477 3.44772 12.7 4 12.7H7C7.55228 12.7 8 13.1477 8 13.7V16.7C8 17.2523 7.55228 17.7 7 17.7H4C3.44772 17.7 3 17.2523 3 16.7V13.7Z" fill="black"/>
<path d="M12 13.7C12 13.1477 12.4477 12.7 13 12.7H16C16.5523 12.7 17 13.1477 17 13.7V16.7C17 17.2523 16.5523 17.7 16 17.7H13C12.4477 17.7 12 17.2523 12 16.7V13.7Z" fill="black"/>
</svg>
