<svg width="17" height="17" viewBox="0 0 17 17" fill="none" xmlns="http://www.w3.org/2000/svg">
<path d="M7.58334 3.95836H4.25001C3.89638 3.95836 3.55724 4.09884 3.3072 4.34888C3.05715 4.59893 2.91667 4.93807 2.91667 5.29169V12.625C2.91667 12.9786 3.05715 13.3178 3.3072 13.5678C3.55724 13.8179 3.89638 13.9584 4.25001 13.9584H11.5833C11.937 13.9584 12.2761 13.8179 12.5261 13.5678C12.7762 13.3178 12.9167 12.9786 12.9167 12.625V9.29169M11.974 3.01569C12.097 2.88835 12.2441 2.78677 12.4068 2.71689C12.5695 2.64701 12.7444 2.61023 12.9215 2.60869C13.0985 2.60715 13.2741 2.64089 13.4379 2.70793C13.6018 2.77497 13.7507 2.87398 13.8759 2.99917C14.0011 3.12436 14.1001 3.27323 14.1671 3.43709C14.2341 3.60095 14.2679 3.77652 14.2663 3.95356C14.2648 4.1306 14.228 4.30556 14.1581 4.46823C14.0883 4.6309 13.9867 4.77803 13.8593 4.90103L8.13534 10.625H6.25001V8.73969L11.974 3.01569Z" stroke="black" stroke-width="2" stroke-linecap="round" stroke-linejoin="round"/>
</svg>
