<svg width="20" height="20" viewBox="0 0 20 20" fill="none" xmlns="http://www.w3.org/2000/svg">
<path d="M3 4C3 3.44772 3.44772 3 4 3H7C7.55228 3 8 3.44772 8 4V7C8 7.55228 7.55228 8 7 8H4C3.44772 8 3 7.55228 3 7V4Z" fill="black"/>
<path d="M12 4C12 3.44772 12.4477 3 13 3H16C16.5523 3 17 3.44772 17 4V7C17 7.55228 16.5523 8 16 8H13C12.4477 8 12 7.55228 12 7V4Z" fill="black"/>
<path d="M3 13C3 12.4477 3.44772 12 4 12H7C7.55228 12 8 12.4477 8 13V16C8 16.5523 7.55228 17 7 17H4C3.44772 17 3 16.5523 3 16V13Z" fill="black"/>
<path d="M12 13C12 12.4477 12.4477 12 13 12H16C16.5523 12 17 12.4477 17 13V16C17 16.5523 16.5523 17 16 17H13C12.4477 17 12 16.5523 12 16V13Z" fill="black"/>
</svg>
