<svg width="17" height="17" viewBox="0 0 17 17" fill="none" xmlns="http://www.w3.org/2000/svg">
<path d="M12.9167 4.86662L12.3387 12.9613C12.3147 13.2977 12.1642 13.6125 11.9174 13.8423C11.6706 14.0722 11.3459 14.2 11.0087 14.2H5.49134C5.1541 14.2 4.82938 14.0722 4.5826 13.8423C4.33581 13.6125 4.18528 13.2977 4.16134 12.9613L3.58334 4.86662M6.91667 7.53328V11.5333M9.58334 7.53328V11.5333M10.25 4.86662V2.86662C10.25 2.68981 10.1798 2.52024 10.0547 2.39521C9.92972 2.27019 9.76015 2.19995 9.58334 2.19995H6.91667C6.73986 2.19995 6.57029 2.27019 6.44527 2.39521C6.32024 2.52024 6.25001 2.68981 6.25001 2.86662V4.86662M2.91667 4.86662H13.5833" stroke="black" stroke-width="2" stroke-linecap="round" stroke-linejoin="round"/>
</svg>
